<svg id="Layer_1" data-name="Layer 1" xmlns="http://www.w3.org/2000/svg" xmlns:xlink="http://www.w3.org/1999/xlink" width="22.9cm" height="20.91cm" viewBox="0 0 649.03 592.8"><defs><style>.cls-1{fill:none;}.cls-2{fill:#8a42fc;}.cls-3{clip-path:url(#clip-path);}.cls-4{fill:#ff8420;}.cls-5{font-size:61.35px;fill:#f5f5f7;font-family:BeVietnam-Bold, BeVietnam Bold;font-weight:700;}.cls-6{letter-spacing:-0.08em;}.cls-7{fill:#fc7917;}.cls-8{fill:#fc6f06;}.cls-9{fill:#fddc7d;}.cls-10{fill:#f9c035;}.cls-11{fill:#fcd165;}.cls-12{fill:#f9c85d;}.cls-13{fill:#f7b219;}.cls-14{fill:#070356;}.cls-15{fill:#0a0a75;}.cls-16{fill:#f9ca55;}.cls-17{fill:#fff;}.cls-18{fill:#f4be47;}.cls-19{fill:#efa106;}.cls-20{fill:#ef7114;}.cls-21{fill:#ffb0ac;}.cls-22{fill:#fe9295;}.cls-23{fill:#200244;}.cls-24{fill:#6bf9f5;}.cls-25{fill:#3bf2e5;}.cls-26{fill:#bb93f9;}.cls-27{fill:#130649;}.cls-28{fill:#82cb76;}.cls-29{fill:#50b55a;}.cls-30{fill:#3a9140;}.cls-31{fill:#245b26;}.cls-32{fill:#e7a302;}.cls-33{fill:#fcb800;}.cls-34{fill:#fed001;}</style><clipPath id="clip-path"><path class="cls-1" d="M501.08,592l-341,.09C114,592.07,81,584.83,39.59,537.8c-62-70.44-49.65-175.67,26.07-221.78C269,192.17,139.79,114.47,253.92,42.51c81.31-51.26,182.62,67.36,265.58-9.46,114-105.6,174.51,60.79,85.06,475.34A105.9,105.9,0,0,1,501.08,592Z"/></clipPath></defs><title>Bank</title><path id="background" class="cls-2" d="M501.08,592l-341,.09C114,592.07,81,584.83,39.59,537.8c-62-70.44-49.65-175.67,26.07-221.78C269,192.17,139.79,114.47,253.92,42.51c81.31-51.26,182.62,67.36,265.58-9.46,114-105.6,174.51,60.79,85.06,475.34A105.9,105.9,0,0,1,501.08,592Z"/><g id="ATM"><g class="cls-3"><path class="cls-4" d="M368.42,138.71v60.62L701.62,62.55V-36.87L388.55,107.27A34.61,34.61,0,0,0,368.42,138.71Z"/><polygon class="cls-4" points="420.36 217.75 420.36 591.95 664.15 591.95 664.15 122.88 420.36 217.75"/><text class="cls-5" transform="translate(447.61 149.29) rotate(-22.45)"><tspan class="cls-6">A</tspan><tspan x="32.82" y="0">TM</tspan></text><path class="cls-7" d="M420.35,217.75s57.38,22,88.16-2.95S586,185,603.06,199.33c18.5,15.48-5.73,111.41,27.68,201.83s-23.07,190.91-23.07,190.91h56.48V122.88Z"/><polygon class="cls-8" points="368.42 199.33 393.31 214.49 420.36 217.75 701.62 108.29 701.62 62.55 368.42 199.33"/><path class="cls-9" d="M441.87,300.92c14.65-10.5,64.81-43,128-45.65,0,0-36.68,215.69-43.06,336.68H399.24s20.25-209.32,37-282.62A14.25,14.25,0,0,1,441.87,300.92Z"/><path class="cls-10" d="M438,338.72l111.63-35.08S517.78,528,514.06,584.83L406.15,571S425.29,395.6,438,338.72Z"/><polygon class="cls-11" points="438.04 338.72 498.11 364.24 542.98 351.48 549.67 303.64 438.04 338.72"/><path class="cls-12" d="M498.11,364.24l-44.65,134-2.13,27.64s-23.92,0-6.91,40.4c0,0-25-.07-37-6.94,0,0,21.55-183.35,30.59-220.56Z"/><path class="cls-13" d="M453.46,498.19s36.33,8.91,69.65,3.08L543,351.48l-44.87,12.76Z"/><path class="cls-14" d="M514.81,572.31l-33.67-4.19s-9.79-38,10-42.59c19.08-4.4,28.39,5.53,28.39,5.53Z"/><path class="cls-14" d="M442.18,528.65l40.49,3.12s12.44-6,18.51-7.37l-49.5-3.12A23.52,23.52,0,0,0,442.18,528.65Z"/><path class="cls-15" d="M441.56,563.3l39.58,4.81.47-4.59,3.75-31.76-43.18-3.12S429.95,537.58,441.56,563.3Z"/><path class="cls-16" d="M484,317.4l24.51-8.82a5.93,5.93,0,0,0,3.89-5l1.46-15a5.93,5.93,0,0,0-7.37-6.31c-8,2-19.92,5.72-26.89,10.88a5.9,5.9,0,0,0-2.35,4.25l-1.17,14A5.93,5.93,0,0,0,484,317.4Z"/><path class="cls-16" d="M584.21,591.95H526.81S535,452.48,569.87,255.27h.79a10.42,10.42,0,0,1,10.42,10.32Z"/><path class="cls-17" d="M510.25,389.13l28.2-4.67L524.78,487.92H483.32a6.14,6.14,0,0,1-5.85-8l27.93-86.58A6.14,6.14,0,0,1,510.25,389.13Z"/><path class="cls-18" d="M584.21,591.95H526.81S542,579.7,559.32,563.41s-7.6-27.14,7.06-77.77.54-139.88,6.51-166.31-3-64.06-3-64.06h.79a10.42,10.42,0,0,1,10.42,10.32Z"/><path class="cls-19" d="M487.11,431.1l-6.22.19c-1,0-1.51-.64-1.22-1.5l.87-2.6a2.62,2.62,0,0,1,2.27-1.61l6.22-.2c1,0,1.52.64,1.23,1.5l-.88,2.6A2.62,2.62,0,0,1,487.11,431.1Z"/><path class="cls-20" d="M480.83,431.45a1.42,1.42,0,0,1-1.17-.51,1.27,1.27,0,0,1-.14-1.19l.87-2.6a2.79,2.79,0,0,1,2.41-1.72l6.22-.2a1.45,1.45,0,0,1,1.24.51,1.27,1.27,0,0,1,.14,1.19l-.88,2.6a2.79,2.79,0,0,1-2.41,1.72l-6.22.19Zm8.27-5.91H489l-6.22.2a2.46,2.46,0,0,0-2.13,1.51l-.87,2.6a1,1,0,0,0,.09.91,1.12,1.12,0,0,0,1,.39l6.22-.19a2.46,2.46,0,0,0,2.13-1.51l.88-2.6a1,1,0,0,0-.09-.91A1.1,1.1,0,0,0,489.1,425.54Z"/><path class="cls-19" d="M483.31,442.4l-6.22.19c-1,0-1.51-.64-1.22-1.5l.87-2.6a2.62,2.62,0,0,1,2.27-1.61l6.22-.19c1,0,1.51.64,1.22,1.5l-.88,2.6A2.62,2.62,0,0,1,483.31,442.4Z"/><path class="cls-20" d="M477,442.74a1.42,1.42,0,0,1-1.17-.52,1.27,1.27,0,0,1-.14-1.19l.87-2.6a2.79,2.79,0,0,1,2.41-1.71l6.22-.19a1.45,1.45,0,0,1,1.24.51,1.27,1.27,0,0,1,.14,1.19l-.88,2.6a2.79,2.79,0,0,1-2.41,1.72l-6.22.19Zm8.26-5.9h-.06L479,437a2.46,2.46,0,0,0-2.13,1.51l-.87,2.6a1,1,0,0,0,.09.91,1.13,1.13,0,0,0,1,.39l6.22-.19a2.46,2.46,0,0,0,2.13-1.51l.88-2.6a1,1,0,0,0-.09-.91A1.11,1.11,0,0,0,485.3,436.84Z"/><path class="cls-19" d="M479.51,453.71l-6.21.18c-1,0-1.51-.65-1.22-1.51l.87-2.6a2.61,2.61,0,0,1,2.27-1.61l6.22-.18c1,0,1.51.65,1.22,1.51l-.88,2.6A2.61,2.61,0,0,1,479.51,453.71Z"/><path class="cls-20" d="M473.24,454a1.42,1.42,0,0,1-1.17-.52,1.27,1.27,0,0,1-.14-1.19l.87-2.6a2.78,2.78,0,0,1,2.41-1.71l6.22-.18a1.44,1.44,0,0,1,1.24.52,1.27,1.27,0,0,1,.14,1.19l-.88,2.6a2.78,2.78,0,0,1-2.41,1.71l-6.21.18Zm8.25-5.89h-.05l-6.22.18a2.45,2.45,0,0,0-2.13,1.5l-.87,2.6a1,1,0,0,0,.09.91,1.14,1.14,0,0,0,1,.39l6.21-.18a2.45,2.45,0,0,0,2.13-1.5l.88-2.6a1,1,0,0,0-.09-.91A1.11,1.11,0,0,0,481.49,448.14Z"/><path class="cls-19" d="M475.7,465l-6.21.17c-1,0-1.51-.65-1.22-1.51l.87-2.6a2.61,2.61,0,0,1,2.27-1.6l6.21-.17c1,0,1.51.65,1.22,1.51l-.88,2.6A2.61,2.61,0,0,1,475.7,465Z"/><path class="cls-20" d="M469.44,465.33a1.42,1.42,0,0,1-1.18-.52,1.27,1.27,0,0,1-.14-1.19L469,461a2.77,2.77,0,0,1,2.41-1.71l6.21-.17a1.43,1.43,0,0,1,1.24.52,1.27,1.27,0,0,1,.14,1.19l-.88,2.6a2.78,2.78,0,0,1-2.41,1.71l-6.21.17Zm8.24-5.89h-.05l-6.21.17a2.45,2.45,0,0,0-2.13,1.5l-.87,2.6a1,1,0,0,0,.09.91,1.14,1.14,0,0,0,1,.39l6.21-.17a2.45,2.45,0,0,0,2.13-1.5l.88-2.6a1,1,0,0,0-.09-.91A1.11,1.11,0,0,0,477.68,459.44Z"/></g></g><g id="boy"><g id="head"><path class="cls-21" d="M256.89,303.64a234.47,234.47,0,0,0-9.83,41.06L191.48,316S208.8,305.44,216.29,293h0a23.92,23.92,0,0,0,3.06-7.42l9.49,4.57Z"/><path class="cls-22" d="M256.89,303.64a234.47,234.47,0,0,0-9.83,41.06c-29.78-37.45-30.75-51.41-30.77-51.7h0l12.55-2.85Z"/><path class="cls-23" d="M213,282s-5.55-39.61,0-64.2.73-32.9,29.39-41.47,70.71-46.6,92.93-30.8S325.83,222.82,289,226.6C289,226.6,230.91,284.65,213,282Z"/><path class="cls-21" d="M282.87,276.72c-6.49-1.73-14.19,35.67-41.52,35.11-26.61-.55-31.88-33.73-26.32-51.15l0,0c5.56-17.42,12.6-40.71,21.48-17.75,0,0,14,8.15,20.35-7s23.76-30.77,32.28-13.34c0,0-1.71,30.46-1.13,36.29C288.59,264.29,305.91,282.88,282.87,276.72Z"/><path class="cls-22" d="M289.18,222.49s-18.32-6.82-24,10.76-14.55,19-28.62,12.94c-13.69-5.91-21.14,13.38-21.54,14.44,5.56-17.42,12.6-40.71,21.48-17.75,0,0,14,8.15,20.35-7S280.65,205.07,289.18,222.49Z"/></g><path class="cls-24" d="M277.83,480.82s66.54,35.67,121.41,44.53c0,0-2.23,26.24-11.71,31.52L267.76,534.45Z"/><path class="cls-25" d="M330.09,527.36C308,533.6,300,522.3,299.37,521.3a38.52,38.52,0,0,1-4.11-9.89,154.47,154.47,0,0,0-9.8-26.69s-5,35.84,1.94,47H335l40.58-11.58C365.58,517.8,353.19,520.84,330.09,527.36Z"/><path class="cls-24" d="M281.44,591.95s-75.71,2.07-137.59-.25c-.69-3.31-2.37-5.37-12.53-111.78-9-93.75,31.87-140.76,51.07-157.07a74.9,74.9,0,0,1,9.09-6.8c10.22-.42,20.36,3.26,29.13,8.11a118.38,118.38,0,0,1,26.45,20.54s-2,6.93-.62,18.41c.21,1.66.48,3.41.85,5.26a39.3,39.3,0,0,0,4.4,11h0c4.7,8.61,11.9,18.5,17.15,32.39C301.17,497.26,281.44,591.95,281.44,591.95Z"/><path class="cls-25" d="M257.61,406.14s-1.49,97.64,4.33,113,25.46,12.65,25.46,12.65l-25.46,25.1-37.75-48.53,5-64.1Z"/><path class="cls-25" d="M180.88,458.64s-.72,63.77,5.27,90.83,5.34,42.6,5.34,42.6l90-.12,1.26-7.11Z"/><path class="cls-17" d="M281.44,591.95h-5.13c18.91-141.34-24.63-204.66-24.63-204.66v-7.95c4.7,8.61,11.9,18.5,17.15,32.39C301.17,497.26,281.44,591.95,281.44,591.95Z"/><path class="cls-24" d="M335,531.77s17.95,20.77,0,46.73c0,0-62.42,11.46-113.24,9.71a25.54,25.54,0,0,1-24.4-21.65l-16.5-107.91,76.73-52.51L249.06,524a6.42,6.42,0,0,0,6.33,6.88Z"/><path class="cls-17" d="M397.11,525l2.13.36s-2.57,27.5-11.71,31.52l-15-2.73,13.34-23.53Z"/><g id="phone"><path class="cls-26" d="M395.43,508.34h17.52v5.17L378.31,538.6l-17,7.78-10.92-10,40-26.53A9,9,0,0,1,395.43,508.34Z"/><path class="cls-27" d="M404.77,509.65l-7.87-.09a.35.35,0,0,1-.14-.66l1.26-.57h10.52A5.83,5.83,0,0,1,404.77,509.65Z"/><path class="cls-27" d="M412.95,508.34,359.38,544.6l1.94,1.78,17-7.78,33.22-24.06a3.42,3.42,0,0,0,1.42-2.77Z"/></g><path class="cls-21" d="M398.86,528.65s20.92.32,26.15,3.12,29.4,12.67,32.5,17.7-5.06,4.7-13.56,1.76a41.72,41.72,0,0,0-17.15-1.76l11.58,9.28,3,2.54a4.54,4.54,0,0,1-.39,7.25,4,4,0,0,1-3.71.34c-5.06-1.8-15-10.94-20.42-10s-22.54-11.34-22.54-11.34S398.38,534.25,398.86,528.65Z"/><path class="cls-25" d="M247.29,368.36l-.78,15.21c-18.11-46-64.12-60.73-64.12-60.73a74.9,74.9,0,0,1,9.09-6.8c10.22-.42,20.36,3.26,29.13,8.11l25.83,38.94C246.64,364.76,246.92,366.51,247.29,368.36Z"/><path class="cls-21" d="M335,531.77s13.93-10.14,26.3-10.59,31.95-3.15,33.07-1.57,2.92,9.08-15.75,9H368.07s5.17,6,9.67,5.58,13.72-5.15,14.85-2.46-5.85,12.24-11.25,17.7,1.57,7.71-8.32,14S366,574.83,339.35,571C339.35,571,349.89,552,335,531.77Z"/><path class="cls-17" d="M191.48,316s27.58-10.14,65.41,39.58c0,0-12,4.6-11.06,18.06,0,0-9.49-45.21-63.44-50.84Z"/><path class="cls-17" d="M335,531.77s17.58,21.86,0,46.73l-13.56,2.23s12-35.74,0-49Z"/></g><path class="cls-28" d="M367.31,85.8c-15.16,22.74-46.92,27.88-68.16,10.45a121.82,121.82,0,0,1,1.54-13.33q.4-2.32.89-4.59a35.67,35.67,0,0,0,9.74,7.53,36.75,36.75,0,0,0,44.6-8.62A61.3,61.3,0,0,0,367.31,85.8Z"/><path class="cls-29" d="M343.54,95.38c1.8,2.76-1.87,7.58-9,8.63s-13.63-2.87-14.16-6.43,3.89-5.15,9.72-5.47S341.75,92.54,343.54,95.38Z"/><path class="cls-29" d="M303,80.46a120.18,120.18,0,0,0-1.77,17.39q-1-.77-2-1.6a120.71,120.71,0,0,1,2.31-17.34Q302.19,79.72,303,80.46Z"/><path class="cls-29" d="M350.85,82.07a36.55,36.55,0,0,1-43.69,1.24,36,36,0,0,1-5.6-5q-.12.58-.24,1.17-.31,1.5-.57,3a10.93,10.93,0,0,0,1.65,1.39c2,1.35,3.71,1.37,4.41.4a37.24,37.24,0,0,0,44.92-1.63c1.29.51,3.38,0,5.3-1.6A64.87,64.87,0,0,0,363,86c-1.51,2.41-2.39,4.56-2.08,5.93a46,46,0,0,1-54.6,7.94,23.52,23.52,0,0,0-5-6.34q-.92-.9-1.9-1.77-.15,1.59-.27,3.2,0,.63-.08,1.26a45.09,45.09,0,0,0,7.59,5.08,46.74,46.74,0,0,0,54.76-8.46,47.85,47.85,0,0,0,4.3-5q.78-1,1.51-2.12l-.82-.48q-1-.63-2.07-1.31a61.33,61.33,0,0,1-5.89-4.43q-1-.81-1.89-1.67l-.36-.34-.36-.34A37,37,0,0,1,350.85,82.07Z"/><path class="cls-17" d="M330.25,100.75a5.5,5.5,0,0,0,2,.32q-.47-1.2-.9-2.41a15.56,15.56,0,0,1-1.73-.17,6.39,6.39,0,0,1-1.26-.32,2.34,2.34,0,0,1-.82-.49,1.57,1.57,0,0,1-.41-.71,1,1,0,0,1,.06-.77,1.59,1.59,0,0,1,.58-.6,3.61,3.61,0,0,1,1-.41A7.72,7.72,0,0,1,330.1,95l-.19-.61.93-.05.2.61a7.24,7.24,0,0,1,2.39.32,4,4,0,0,1,1.65,1.05l-1.47.22a2.91,2.91,0,0,0-2.32-.84q.39,1.12.8,2.24l1.12,0c.25,0,.55,0,.89,0a7.32,7.32,0,0,1,1,.16,4,4,0,0,1,1,.35,1.33,1.33,0,0,1,.62.63,1,1,0,0,1,.05.81,1.74,1.74,0,0,1-.57.73,4.1,4.1,0,0,1-1.1.6,8.17,8.17,0,0,1-1.56.41l.31.73-1,.12-.3-.74a7.57,7.57,0,0,1-3.21-.45,3,3,0,0,1-1.73-1.53h1.55A1.75,1.75,0,0,0,330.25,100.75ZM329,96.07a.64.64,0,0,0-.34.81.85.85,0,0,0,.28.41,1.63,1.63,0,0,0,.52.27,4.28,4.28,0,0,0,.71.17c.27,0,.56.08.87.1q-.38-1.07-.73-2.14A3.37,3.37,0,0,0,329,96.07Zm5.16,4.68a2.42,2.42,0,0,0,.66-.32.89.89,0,0,0,.34-.42.69.69,0,0,0,0-.52.84.84,0,0,0-.36-.4,2.24,2.24,0,0,0-.61-.23,5.51,5.51,0,0,0-.82-.11l-1-.05q.43,1.13.89,2.26A5.66,5.66,0,0,0,334.19,100.75Z"/><path class="cls-30" d="M305.52,83.36q-1.37-1.08-2.67-2.31-.17,1-.32,2S304.56,84.48,305.52,83.36Z"/><path class="cls-30" d="M304.7,98.95q-1.77-1.08-3.47-2.35,0-1,.1-2.07A15.93,15.93,0,0,1,304.7,98.95Z"/><path class="cls-30" d="M352.88,81.73q1.24-1.09,2.39-2.29l1.19,1.15S354.53,82.24,352.88,81.73Z"/><path class="cls-30" d="M362.28,90.61q1.4-1.52,2.69-3.2l-1.33-.91S362,88.92,362.28,90.61Z"/><path class="cls-28" d="M190.2,246.71c-16.05,12.17-37.37,13-52.43,2.64a63.9,63.9,0,0,0-5-7.68q-1-1.25-2-2.4a41.47,41.47,0,0,0,9.93,2.29,43.51,43.51,0,0,0,38.55-16.66C182.5,231.83,186.11,239.12,190.2,246.71Z"/><path class="cls-29" d="M169.2,245.43c1.6,3.82-1.23,8.41-6.51,8.72s-10.43-2.92-11.66-5.71,1.87-5,6.8-6.38S167.62,241.57,169.2,245.43Z"/><path class="cls-29" d="M132.68,240.13a66.11,66.11,0,0,1,6.55,10.17q-.74-.46-1.46-1a60.08,60.08,0,0,0-6.72-9.79Q131.86,239.86,132.68,240.13Z"/><path class="cls-29" d="M175,229.62a43.05,43.05,0,0,1-38.3,11.3,41.42,41.42,0,0,1-5.88-1.66l.51.6q.65.78,1.29,1.59a12.41,12.41,0,0,0,1.51.55c1.69.5,2.77.25,2.8-.44a43,43,0,0,0,38.84-10.78,3.62,3.62,0,0,0,4.61.31q2.64,5.63,5.63,11.55a8.41,8.41,0,0,0-1.94,6.14c-13.11,7.76-28.78,8.65-41.54,2.67a21.08,21.08,0,0,0-4.75-3.84c-.52-.33-1-.65-1.55-1q.58.94,1.14,1.91l.44.77a40.39,40.39,0,0,0,5.37,3.09c12.62,6.06,28.18,5.41,41.39-2q2.1-1.18,4.12-2.58.78-.54,1.55-1.12l-.83-1.54q-1-2-2.06-3.91-3-5.77-5.63-11.28-.89-1.85-1.74-3.68l-.33-.71-.33-.7A45.32,45.32,0,0,1,175,229.62Z"/><path class="cls-31" d="M159,250.64a3.9,3.9,0,0,0,1.59.33l-1-2.45a12.47,12.47,0,0,1-1.38-.1,5,5,0,0,1-1-.23,2.06,2.06,0,0,1-.71-.41,1.74,1.74,0,0,1-.43-.63,1.13,1.13,0,0,1-.07-.73,1.4,1.4,0,0,1,.37-.63,2.67,2.67,0,0,1,.74-.51,5.2,5.2,0,0,1,1-.37l-.24-.58.75-.16.24.59a4.32,4.32,0,0,1,2,.13,3.16,3.16,0,0,1,1.44,1.05l-1.17.28a2.06,2.06,0,0,0-2-.73l.9,2.23H161a6.44,6.44,0,0,1,.72,0,4.23,4.23,0,0,1,.85.18,2.84,2.84,0,0,1,.8.4,1.58,1.58,0,0,1,.27,2.37,2.44,2.44,0,0,1-.8.58,4.58,4.58,0,0,1-1.17.35l.31.78-.78.07-.31-.78a5.49,5.49,0,0,1-2.51-.48,3.27,3.27,0,0,1-1.54-1.42l1.19-.08A1.83,1.83,0,0,0,159,250.64Zm-1.57-4.54a.67.67,0,0,0-.16.82.92.92,0,0,0,.28.38,1.35,1.35,0,0,0,.44.23,3.27,3.27,0,0,0,.59.12c.22,0,.45,0,.7.05l-.85-2.1A2.32,2.32,0,0,0,157.46,246.1Zm4.62,4.59a1.45,1.45,0,0,0,.49-.31.81.81,0,0,0,.23-.44,1,1,0,0,0-.08-.56,1,1,0,0,0-.32-.44,1.64,1.64,0,0,0-.5-.25,3.2,3.2,0,0,0-.66-.12l-.78,0,.94,2.35A3.23,3.23,0,0,0,162.08,250.69Z"/><path class="cls-30" d="M135.64,241.25q-1.36-.36-2.71-.81l.81,1.06S135.54,242,135.64,241.25Z"/><path class="cls-30" d="M141.31,250.88q-1.27-.65-2.5-1.38l-.72-1.29A16.29,16.29,0,0,1,141.31,250.88Z"/><path class="cls-30" d="M176.72,229.85q1-1,2-2.16l1.07,2.33A2.48,2.48,0,0,1,176.72,229.85Z"/><path class="cls-30" d="M185.25,248.06q1.31-.82,2.59-1.74l-1.29-2.5A5.7,5.7,0,0,0,185.25,248.06Z"/><path class="cls-28" d="M86.57,473C55.8,469.08,37.23,439.15,47,413.39a37.42,37.42,0,0,0,21.46,7.94,38.07,38.07,0,0,0,6.78-.31,26.22,26.22,0,0,0,5.19,9.61c9.82,12,32.07,14.78,48.29-2.74C121.73,447,107.16,463.3,86.57,473Z"/><path class="cls-29" d="M87.41,454.51c-9.56,5.16-24.56,3.37-28.95-2.82s1.41-10.2,9.49-10.8a77.1,77.1,0,0,1,23.47,1.87C97.22,444.26,97,449.4,87.41,454.51Z"/><path class="cls-29" d="M75,422.9a39.52,39.52,0,0,1-28.76-7.06q.36-1.23.8-2.45a37.37,37.37,0,0,0,27.41,7.74Q74.65,422,75,422.9Z"/><path class="cls-29" d="M121.62,434.08c-17,11.6-36.42,5.79-43.76-7.06a26.24,26.24,0,0,1-2.62-6q-.82.11-1.67.19a38,38,0,0,1-4.51.15,6.14,6.14,0,0,0,.58,1.95,7.32,7.32,0,0,0,6.18,3.9c6.78,13.66,26.36,20.65,44.22,10-1.58,3.33-1.61,5.27.34,4.92a79.3,79.3,0,0,1-23.24,23.23c-4.46.88-10.34,2.39-16,4-22.06-5.82-36.08-25.9-33.86-46.1A5.36,5.36,0,0,0,53.51,420a9.7,9.7,0,0,0,.7-2.18,38.39,38.39,0,0,1-5.2-3q-1-.69-2-1.46a42.92,42.92,0,0,0-2.15,8.86c-2.91,20.42,10.17,41.19,31.82,48.4a53.6,53.6,0,0,0,7,1.88q1.41.28,2.85.48,2.09-1,4.1-2.06a86.8,86.8,0,0,0,9.75-6.08,80,80,0,0,0,21.92-23.67,78.13,78.13,0,0,0,4.85-9.46q.41-1,.79-1.92t.74-1.93A41.42,41.42,0,0,1,121.62,434.08Z"/><path class="cls-17" d="M67.26,448.71a1.22,1.22,0,0,0,0,1.52,66.81,66.81,0,0,0,6.94-1.31,4.66,4.66,0,0,1-.58-1.23,1.42,1.42,0,0,1,0-1,1.63,1.63,0,0,1,.77-.74,7.68,7.68,0,0,1,1.63-.59,12.89,12.89,0,0,1,2.15-.38,15.25,15.25,0,0,1,2.12-.05,12.22,12.22,0,0,1,1.95.24,8.2,8.2,0,0,1,1.65.51l1.49-.65.86.4-1.52.69c.7.48.93,1,.67,1.58a5.11,5.11,0,0,1-2.2,1.94q-.7-.33-1.38-.7c1.4-.74,1.7-1.42,1-2q-2.88,1.15-6,2.06l.51.73a1.78,1.78,0,0,1,.29.61,1.18,1.18,0,0,1-.07.79,2.19,2.19,0,0,1-.76.86,5.69,5.69,0,0,1-1.83.78,11.86,11.86,0,0,1-5.13.24,9.59,9.59,0,0,1-2.23-.67,7.49,7.49,0,0,1-1.8-1.1q-1.13.13-2.28.23l-.73-.8q1.14-.08,2.26-.19c-.71-1-.74-1.78-.18-2.44s1.71-1.1,3.41-1.41q.53.58,1.09,1.13A3.54,3.54,0,0,0,67.26,448.71Zm1.79,2.87a5.31,5.31,0,0,0,1.24.4,6.48,6.48,0,0,0,1.46.11,8.07,8.07,0,0,0,1.64-.23,3.65,3.65,0,0,0,1.14-.43,1.14,1.14,0,0,0,.47-.52.85.85,0,0,0,0-.6,4.67,4.67,0,0,0-.31-.68A67.54,67.54,0,0,1,68,451,5,5,0,0,0,69.05,451.58Zm11-5.58a7.06,7.06,0,0,0-2.53.32,3.53,3.53,0,0,0-.95.4,1,1,0,0,0-.41.47.9.9,0,0,0,0,.54,2.41,2.41,0,0,0,.28.6q2.91-.82,5.64-1.87A6.07,6.07,0,0,0,80.07,446Z"/><path class="cls-30" d="M75.19,425.91A27,27,0,0,1,74.08,423q-1.47.18-3,.25A5.09,5.09,0,0,0,75.19,425.91Z"/><path class="cls-30" d="M47.54,421.31a41.18,41.18,0,0,1,.8-4q1.77,1.1,3.54,2A3.72,3.72,0,0,1,47.54,421.31Z"/><path class="cls-30" d="M121.67,436.15a41.1,41.1,0,0,0,3.47-2.59q-1.44,3-3.15,5.9S119.89,440.25,121.67,436.15Z"/><path class="cls-30" d="M83.2,469.8q2.25.52,4.59.84,3.34-1.64,6.46-3.51A71.45,71.45,0,0,0,83.2,469.8Z"/><path class="cls-28" d="M393.1,397.31c-43.69,20.84-91.32-7.13-95-46.89a66.11,66.11,0,0,0,29.36.43,56.69,56.69,0,0,0,8.44-2.55,32.73,32.73,0,0,0,6.9,12.88c13.38,16.29,45.82,20.07,67.29-6A111,111,0,0,1,393.1,397.31Z"/><path class="cls-29" d="M368.46,388.8c-5.76,6.51-22,10.46-32.19,5.32s-8.69-13.24-1.14-16.31c7.63-3.26,17.79-2.69,26.36-1C369.92,378.59,374.39,382.31,368.46,388.8Z"/><path class="cls-29" d="M335.63,351.05c-9.7,3.89-22.33,5.84-36.93,3.09q-.35-1.84-.58-3.72c14.45,3.37,27.06,1.85,36.78-1.73Q335.22,349.89,335.63,351.05Z"/><path class="cls-29" d="M400.56,364.43c-23.31,17.4-51.52,9.22-61.25-8.1a32.18,32.18,0,0,1-3.4-8q-1,.39-2.05.76a57.07,57.07,0,0,1-5.63,1.63,8.36,8.36,0,0,0,1.06,2.49,8.24,8.24,0,0,0,7.82,3.82c9.75,18.16,38.79,27,63,9.63-.06,2.2,1.83,2.75,5,.67a108.7,108.7,0,0,1-9.81,22.14,159,159,0,0,0-14.19,10.33c-33.94,9.29-67.26-8.82-77-36.68,3.15-1,4.67-4,4.74-7.74a17.68,17.68,0,0,0-.26-3.27,70.51,70.51,0,0,1-7.47-1q-1.49-.28-3-.64a60,60,0,0,0,3.09,13c9.74,28.43,42.79,47.15,77.09,39.1A72.26,72.26,0,0,0,389,399.12q2.06-.83,4.1-1.8,1-1.46,1.88-2.92,2.33-3.74,4.28-7.49A110.31,110.31,0,0,0,407.89,365q1-3.59,1.69-7.08.14-.68.27-1.36t.25-1.34A54.43,54.43,0,0,1,400.56,364.43Z"/><path class="cls-17" d="M341,387.78a2.77,2.77,0,0,0,1.52,1.75q2.85-1.6,5.45-3.31a11.42,11.42,0,0,1-1.74-1.28,3,3,0,0,1-.84-1.15,1.17,1.17,0,0,1,.13-1.05,3.72,3.72,0,0,1,1.16-1,7.12,7.12,0,0,1,1.91-.85,11.37,11.37,0,0,1,2.2-.4,13.27,13.27,0,0,1,2.3,0,14.47,14.47,0,0,1,2.27.38l1.11-.91,1.33.37-1.11.94c1.22.45,2,1,2.23,1.64a2.52,2.52,0,0,1-.59,2.39q-1.12-.22-2.23-.49c.83-1,.52-1.8-.81-2.39q-2.14,1.71-4.48,3.36l1.25.71a6.23,6.23,0,0,1,.91.6,2.63,2.63,0,0,1,.73.85,1.43,1.43,0,0,1,.1,1.07,2.53,2.53,0,0,1-1.05,1.25,8,8,0,0,1-2.2,1.1,11.62,11.62,0,0,1-2.62.52,13.3,13.3,0,0,1-2.83-.07,14.18,14.18,0,0,1-2.83-.67l-1.82,1-1.48-.66,1.83-1c-1.62-.87-2.46-1.83-2.57-2.79s.55-1.85,1.89-2.7q1,.55,2.07,1.06C341.26,386.59,340.85,387.16,341,387.78Zm4.57,2.75a7.44,7.44,0,0,0,1.61.09,6.14,6.14,0,0,0,1.54-.28,5.28,5.28,0,0,0,1.38-.67,1.68,1.68,0,0,0,.7-.74.82.82,0,0,0-.06-.67,2.18,2.18,0,0,0-.63-.66c-.3-.22-.63-.45-1-.68q-2.46,1.65-5.14,3.22A9.5,9.5,0,0,0,345.53,390.54Zm5.82-8.82a4.67,4.67,0,0,0-2.39.8,1.71,1.71,0,0,0-.63.65.72.72,0,0,0,0,.63,2,2,0,0,0,.49.63,6.61,6.61,0,0,0,.85.64q2.23-1.53,4.28-3.13A8.6,8.6,0,0,0,351.35,381.72Z"/><path class="cls-30" d="M336.2,355.29a33.42,33.42,0,0,1-1.61-3.83q-1.73.65-3.57,1.22A5.65,5.65,0,0,0,336.2,355.29Z"/><path class="cls-30" d="M303.24,360.47a57.23,57.23,0,0,1-1.49-5.81q2.49.37,4.9.55C306.59,355.21,307,359.2,303.24,360.47Z"/><path class="cls-30" d="M402.32,365a55,55,0,0,0,4.6-4.16q-.54,2.2-1.2,4.44C405.73,365.29,402.46,367.58,402.32,365Z"/><path class="cls-30" d="M384.22,398.86a70.61,70.61,0,0,0,6.72-2.54q1.59-2.33,3-4.68A74.54,74.54,0,0,0,384.22,398.86Z"/><g id="money"><circle class="cls-32" cx="111.28" cy="549.45" r="13.74" transform="matrix(0.35, -0.94, 0.94, 0.35, -442.4, 461.58)"/><circle class="cls-33" cx="109.03" cy="548.36" r="13.74" transform="translate(-442.84 458.77) rotate(-69.53)"/><circle class="cls-34" cx="109.03" cy="548.36" r="12.22" transform="translate(-442.84 458.77) rotate(-69.53)"/><path class="cls-33" d="M109,559.2a10.85,10.85,0,1,1,4.49-1A10.83,10.83,0,0,1,109,559.2Zm0-21.11A10.27,10.27,0,1,0,118.65,552h0A10.27,10.27,0,0,0,109,538.09Z"/><path class="cls-17" d="M112.37,546.33a5.16,5.16,0,0,0-.84-.93,3.46,3.46,0,0,0-1.07-.64,3.66,3.66,0,0,0-.53-.15,1.77,1.77,0,0,0-.56,0,1.12,1.12,0,0,0-.49.17.85.85,0,0,0-.33.44.62.62,0,0,0,.12.62,3.55,3.55,0,0,0,.66.64l1.66,1.29a8.41,8.41,0,0,1,1,.89,3.25,3.25,0,0,1,.65,1,3,3,0,0,1,.21,1.18,4.31,4.31,0,0,1-.31,1.45,3.58,3.58,0,0,1-2,2.09,4.23,4.23,0,0,1-1.43.33,4.47,4.47,0,0,1-1.54-.19l-.74,2-1.47-.55.74-2a6.13,6.13,0,0,1-1.93-1.2,6.77,6.77,0,0,1-1.39-1.79l2.43-1.12a4.62,4.62,0,0,0,1,1.37,4.31,4.31,0,0,0,1.45.86,3.07,3.07,0,0,0,.59.15,1.58,1.58,0,0,0,.59,0,1.18,1.18,0,0,0,.52-.26,1.34,1.34,0,0,0,.37-.57,1.08,1.08,0,0,0,.07-.54,1.11,1.11,0,0,0-.18-.46,2.21,2.21,0,0,0-.36-.41l-.45-.37-1.63-1.28a4.93,4.93,0,0,1-1.51-1.79,2.8,2.8,0,0,1,.07-2.15,3.47,3.47,0,0,1,.78-1.25,3.4,3.4,0,0,1,1.12-.76,3.65,3.65,0,0,1,1.35-.27,4.91,4.91,0,0,1,1.48.22l.74-2,1.47.55-.74,2a6.6,6.6,0,0,1,1.47.88,5.76,5.76,0,0,1,1.31,1.51Z"/></g><g id="money-2" data-name="money"><circle class="cls-32" cx="360.63" cy="263.42" r="13.74" transform="translate(-2.28 3.15) rotate(-0.5)"/><circle class="cls-33" cx="358.14" cy="263.21" r="13.74" transform="translate(-2.28 3.13) rotate(-0.5)"/><circle class="cls-34" cx="358.14" cy="263.21" r="12.22" transform="translate(-2.28 3.13) rotate(-0.5)"/><path class="cls-33" d="M358.13,274a10.83,10.83,0,0,1-.09-21.67h.1a10.83,10.83,0,0,1,.09,21.67Zm0-21.1H358a10.27,10.27,0,0,0,.09,20.54h.09a10.27,10.27,0,0,0-.09-20.54Z"/><path class="cls-17" d="M360.53,260.12a5.16,5.16,0,0,0-1.12-.57,3.46,3.46,0,0,0-1.23-.22,3.66,3.66,0,0,0-.55,0,1.77,1.77,0,0,0-.53.17,1.12,1.12,0,0,0-.4.34.85.85,0,0,0-.15.53.62.62,0,0,0,.34.54,3.55,3.55,0,0,0,.84.36l2,.61a8.41,8.41,0,0,1,1.23.48,3.25,3.25,0,0,1,1,.7,3,3,0,0,1,.62,1,4.31,4.31,0,0,1,.23,1.46,3.58,3.58,0,0,1-1.1,2.66,4.23,4.23,0,0,1-1.22.82,4.47,4.47,0,0,1-1.5.37l0,2.12h-1.57l0-2.12a6.13,6.13,0,0,1-2.23-.43,6.77,6.77,0,0,1-1.94-1.17l1.87-1.92a4.62,4.62,0,0,0,1.41.93,4.31,4.31,0,0,0,1.66.28,3.07,3.07,0,0,0,.6-.07,1.58,1.58,0,0,0,.55-.22,1.18,1.18,0,0,0,.39-.42,1.34,1.34,0,0,0,.14-.67,1.08,1.08,0,0,0-.13-.53,1.11,1.11,0,0,0-.34-.36,2.21,2.21,0,0,0-.48-.25l-.55-.19-2-.61a4.93,4.93,0,0,1-2-1.13,2.8,2.8,0,0,1-.71-2,3.47,3.47,0,0,1,.28-1.45,3.4,3.4,0,0,1,.78-1.11,3.65,3.65,0,0,1,1.17-.74,4.91,4.91,0,0,1,1.46-.33l0-2.12h1.57l0,2.12a6.6,6.6,0,0,1,1.69.29,5.76,5.76,0,0,1,1.77.94Z"/></g><g id="money-3" data-name="money"><circle class="cls-32" cx="69.01" cy="310.26" r="43.2" transform="translate(-194.46 132.47) rotate(-43.45)"/><circle class="cls-33" cx="62.83" cy="315.12" r="43.2" transform="translate(-199.49 129.55) rotate(-43.45)"/><circle class="cls-34" cx="62.83" cy="315.12" r="38.44" transform="translate(-199.49 129.55) rotate(-43.45)"/><path class="cls-33" d="M62.85,349.19h-.95a34,34,0,1,1,.95,0Zm0-66.35a32.28,32.28,0,1,0,23.46,10.07A32.18,32.18,0,0,0,62.82,282.84Z"/><path class="cls-17" d="M61.7,302.87A16.22,16.22,0,0,0,57.92,304a10.89,10.89,0,0,0-3.3,2.14,11.52,11.52,0,0,0-1.16,1.29,5.56,5.56,0,0,0-.86,1.53,3.52,3.52,0,0,0-.2,1.63,2.68,2.68,0,0,0,.78,1.54,2,2,0,0,0,1.93.52,11.16,11.16,0,0,0,2.71-1l6-2.91a26.43,26.43,0,0,1,3.86-1.53,10.23,10.23,0,0,1,3.71-.44,9.54,9.54,0,0,1,3.63,1,13.54,13.54,0,0,1,3.66,2.86,11.26,11.26,0,0,1,3.17,8.48,13.3,13.3,0,0,1-1.06,4.49,14.06,14.06,0,0,1-2.67,4.08l4.57,4.83-3.58,3.39-4.57-4.83a19.27,19.27,0,0,1-6.07,3.79,21.29,21.29,0,0,1-7,1.47l.19-8.43a14.54,14.54,0,0,0,5.24-.87,13.56,13.56,0,0,0,4.44-2.91,9.65,9.65,0,0,0,1.24-1.44,5,5,0,0,0,.79-1.69,3.72,3.72,0,0,0,0-1.81,4.21,4.21,0,0,0-1.1-1.84,3.39,3.39,0,0,0-1.43-1,3.5,3.5,0,0,0-1.55-.12,6.94,6.94,0,0,0-1.65.46q-.85.35-1.67.75l-5.88,2.84a15.49,15.49,0,0,1-7.13,1.79,8.81,8.81,0,0,1-6-3.16A10.91,10.91,0,0,1,44.48,315a10.7,10.7,0,0,1-.59-4.22A11.48,11.48,0,0,1,45,306.6a15.43,15.43,0,0,1,2.65-3.88l-4.57-4.83,3.58-3.39,4.57,4.83a20.75,20.75,0,0,1,4.51-3,18.11,18.11,0,0,1,6.07-1.63Z"/></g><g id="money-4" data-name="money"><circle class="cls-32" cx="240.18" cy="142.23" r="13.74" transform="translate(22.95 317.51) rotate(-69.53)"/><circle class="cls-33" cx="237.93" cy="141.14" r="13.74" transform="translate(22.5 314.7) rotate(-69.53)"/><circle class="cls-34" cx="237.93" cy="141.14" r="12.22" transform="translate(22.5 314.7) rotate(-69.53)"/><path class="cls-33" d="M237.91,152a10.83,10.83,0,1,1,10.16-7A10.78,10.78,0,0,1,237.91,152Zm0-21.11a10.27,10.27,0,1,0,9.63,13.87h0a10.28,10.28,0,0,0-9.63-13.87Z"/><path class="cls-17" d="M241.27,139.11a5.16,5.16,0,0,0-.84-.93,3.46,3.46,0,0,0-1.07-.64,3.66,3.66,0,0,0-.53-.15,1.77,1.77,0,0,0-.56,0,1.12,1.12,0,0,0-.49.17.85.85,0,0,0-.33.44.62.62,0,0,0,.12.62,3.55,3.55,0,0,0,.66.64l1.66,1.29a8.41,8.41,0,0,1,1,.89,3.25,3.25,0,0,1,.65,1,3,3,0,0,1,.21,1.18,4.31,4.31,0,0,1-.31,1.45,3.58,3.58,0,0,1-2,2.09,4.23,4.23,0,0,1-1.43.33,4.47,4.47,0,0,1-1.54-.19l-.74,2-1.47-.55.74-2a6.13,6.13,0,0,1-1.93-1.2,6.77,6.77,0,0,1-1.39-1.79l2.43-1.12a4.62,4.62,0,0,0,1,1.37,4.31,4.31,0,0,0,1.45.86,3.07,3.07,0,0,0,.59.15,1.58,1.58,0,0,0,.59,0,1.18,1.18,0,0,0,.52-.26,1.34,1.34,0,0,0,.37-.57,1.08,1.08,0,0,0,.07-.54,1.11,1.11,0,0,0-.18-.46,2.21,2.21,0,0,0-.36-.41l-.45-.37-1.63-1.28a4.93,4.93,0,0,1-1.51-1.79,2.8,2.8,0,0,1,.07-2.15,3.47,3.47,0,0,1,.78-1.25,3.4,3.4,0,0,1,1.12-.76,3.65,3.65,0,0,1,1.35-.27,4.91,4.91,0,0,1,1.48.22l.74-2,1.47.55-.74,2a6.6,6.6,0,0,1,1.47.88A5.76,5.76,0,0,1,243.6,138Z"/></g></svg>