<svg id="Layer_1" data-name="Layer 1" xmlns="http://www.w3.org/2000/svg" width="21.77cm" height="23.07cm" viewBox="0 0 617.21 654.06"><defs><style>.cls-1{fill:#f9f1ea;}.cls-2{fill:#ff8c33;}.cls-3{fill:#ffaf3b;}.cls-4{fill:#ffd651;}.cls-5{fill:#fff;}.cls-6{fill:#4039c6;}.cls-7{fill:#00ccbe;}.cls-8{fill:#f2b5bc;}.cls-9{fill:#f48d8c;}.cls-10{fill:#06015f;}.cls-11{fill:#4d3eda;}.cls-12{fill:#060061;}.cls-13{fill:#ff7373;}.cls-14{fill:#ffec95;}.cls-15{fill:#7b63ff;}.cls-16{fill:#02b7a5;}.cls-17{fill:#6a5cea;opacity:0.5;}.cls-18{fill:#e26d6d;}.cls-19{fill:#ead88c;opacity:0.2;}</style></defs><title>Payment</title><path id="background" class="cls-1" d="M52.86,249.21a476.21,476.21,0,0,0-13.7,192.36C49.93,521,83,613.32,176.08,639.61,348.34,688.28,358.2,527.56,524,477.72c118.32-35.57,130.15-141.64,0-293.1C456.48,106.06,366.14,15.19,239.39,45.14,120.7,73.19,81.16,148.15,52.86,249.21Z"/><g id="money"><circle class="cls-2" cx="442.29" cy="273.68" r="45.73" transform="translate(-27.38 50.23) rotate(-6.31)"/><circle class="cls-3" cx="433.96" cy="273.83" r="45.73" transform="translate(-27.45 49.32) rotate(-6.31)"/><circle class="cls-4" cx="433.96" cy="273.83" r="40.7" transform="translate(-27.45 49.32) rotate(-6.31)"/><path class="cls-3" d="M433.93,309.9a36.11,36.11,0,1,1,4-.22A36.12,36.12,0,0,1,433.93,309.9Zm.09-70.27a34.78,34.78,0,0,0-3.82.21A34.2,34.2,0,0,0,433.94,308a34.41,34.41,0,0,0,3.78-.21A34.2,34.2,0,0,0,468,270.07h0A34.2,34.2,0,0,0,434,239.63Z"/><path class="cls-5" d="M440.84,262.77a17.18,17.18,0,0,0-3.88-1.5,11.53,11.53,0,0,0-4.16-.3,12.2,12.2,0,0,0-1.8.35,5.89,5.89,0,0,0-1.7.74,3.72,3.72,0,0,0-1.21,1.25,2.84,2.84,0,0,0-.33,1.79,2.08,2.08,0,0,0,1.3,1.67,11.81,11.81,0,0,0,2.91.91l6.89,1.35a28,28,0,0,1,4.23,1.17,10.83,10.83,0,0,1,3.41,2,10.1,10.1,0,0,1,2.4,3.19,14.34,14.34,0,0,1,1.26,4.75,11.92,11.92,0,0,1-2.74,9.18,14.08,14.08,0,0,1-3.77,3.11,14.88,14.88,0,0,1-4.86,1.74l.77,7-5.19.57-.77-7a20.41,20.41,0,0,1-7.54-.69,22.54,22.54,0,0,1-6.83-3.22l5.55-7a15.39,15.39,0,0,0,5,2.61,14.36,14.36,0,0,0,5.61.38,10.22,10.22,0,0,0,2-.42,5.28,5.28,0,0,0,1.74-.92,3.94,3.94,0,0,0,1.15-1.53,4.45,4.45,0,0,0,.25-2.26,3.59,3.59,0,0,0-.6-1.72,3.7,3.7,0,0,0-1.23-1.09,7.35,7.35,0,0,0-1.68-.66q-.94-.25-1.89-.44l-6.77-1.36a16.4,16.4,0,0,1-7.16-3q-2.55-2.09-3-6.49a11.55,11.55,0,0,1,.43-4.88,11.32,11.32,0,0,1,2.2-3.94,12.15,12.15,0,0,1,3.61-2.83,16.33,16.33,0,0,1,4.72-1.58l-.77-7,5.19-.57.77,7a22,22,0,0,1,5.69.39,19.18,19.18,0,0,1,6.16,2.5Z"/></g><g id="money-2" data-name="money"><circle class="cls-2" cx="561.85" cy="384.01" r="28.11" transform="translate(-38.77 64.03) rotate(-6.31)"/><circle class="cls-3" cx="556.73" cy="384.1" r="28.11" transform="translate(-38.82 63.47) rotate(-6.31)"/><circle class="cls-4" cx="556.73" cy="384.1" r="25.02" transform="translate(-38.82 63.47) rotate(-6.31)"/><path class="cls-3" d="M556.72,406.27a22.17,22.17,0,1,1,22.05-24.61h0a22.18,22.18,0,0,1-22.05,24.61Zm.06-43.19a21.37,21.37,0,0,0-2.35.13,21,21,0,0,0,2.29,41.91A21.12,21.12,0,0,0,559,405a21,21,0,0,0,18.58-23.2h0a21,21,0,0,0-20.85-18.71Z"/><path class="cls-5" d="M561,377.31a10.56,10.56,0,0,0-2.39-.92,7.08,7.08,0,0,0-2.55-.19,7.5,7.5,0,0,0-1.11.21,3.62,3.62,0,0,0-1,.46,2.29,2.29,0,0,0-.74.77,1.74,1.74,0,0,0-.2,1.1,1.28,1.28,0,0,0,.8,1,7.26,7.26,0,0,0,1.79.56l4.23.83a17.2,17.2,0,0,1,2.6.72,6.66,6.66,0,0,1,2.1,1.23,6.21,6.21,0,0,1,1.48,2,8.81,8.81,0,0,1,.77,2.92,7.33,7.33,0,0,1-1.69,5.64,8.65,8.65,0,0,1-2.31,1.91,9.15,9.15,0,0,1-3,1.07l.48,4.3-3.19.35-.48-4.3a12.54,12.54,0,0,1-4.64-.42,13.86,13.86,0,0,1-4.2-2l3.41-4.3a9.46,9.46,0,0,0,3.06,1.61,8.83,8.83,0,0,0,3.45.23,6.28,6.28,0,0,0,1.21-.26,3.24,3.24,0,0,0,1.07-.57,2.42,2.42,0,0,0,.71-.94,2.74,2.74,0,0,0,.15-1.39,2.2,2.2,0,0,0-.37-1.06,2.28,2.28,0,0,0-.76-.67,4.52,4.52,0,0,0-1-.41q-.58-.15-1.16-.27l-4.16-.84a10.08,10.08,0,0,1-4.4-1.87,5.73,5.73,0,0,1-1.86-4,7.1,7.1,0,0,1,.26-3,7,7,0,0,1,1.35-2.42,7.47,7.47,0,0,1,2.22-1.74,10,10,0,0,1,2.9-1l-.48-4.3,3.19-.35.48,4.3a13.5,13.5,0,0,1,3.5.24,11.79,11.79,0,0,1,3.79,1.54Z"/></g><g id="money-3" data-name="money"><circle class="cls-2" cx="350.1" cy="95.69" r="23.29" transform="translate(54.55 306.35) rotate(-50.77)"/><circle class="cls-3" cx="347.08" cy="92.72" r="23.29" transform="translate(55.74 302.91) rotate(-50.77)"/><circle class="cls-4" cx="347.08" cy="92.72" r="20.72" transform="translate(55.74 302.91) rotate(-50.77)"/><path class="cls-3" d="M347,111.09a18.37,18.37,0,1,1,14.26-6.75h0A18.25,18.25,0,0,1,348.92,111,18.73,18.73,0,0,1,347,111.09Zm0-35.78a17.41,17.41,0,1,0,13.47,28.42h0A17.41,17.41,0,0,0,347.1,75.31Z"/><path class="cls-5" d="M353.55,91.28a8.75,8.75,0,0,0-.84-1.95,5.87,5.87,0,0,0-1.37-1.62,6.21,6.21,0,0,0-.77-.53,3,3,0,0,0-.88-.35,1.9,1.9,0,0,0-.88,0,1.44,1.44,0,0,0-.77.52,1.06,1.06,0,0,0-.15,1.07,6,6,0,0,0,.71,1.38l2,3a14.25,14.25,0,0,1,1.08,2,5.51,5.51,0,0,1,.49,2,5.14,5.14,0,0,1-.3,2,7.3,7.3,0,0,1-1.28,2.15,6.07,6.07,0,0,1-4.32,2.28,7.17,7.17,0,0,1-2.47-.26,7.58,7.58,0,0,1-2.36-1.15l-2.27,2.78-2.06-1.68,2.27-2.78a10.39,10.39,0,0,1-2.44-3,11.48,11.48,0,0,1-1.26-3.63l4.52-.48a7.84,7.84,0,0,0,.82,2.74,7.31,7.31,0,0,0,1.86,2.17,5.2,5.2,0,0,0,.86.57,2.69,2.69,0,0,0,1,.3,2,2,0,0,0,1-.13,2.27,2.27,0,0,0,.91-.71,1.83,1.83,0,0,0,.41-.83,1.89,1.89,0,0,0,0-.84,3.74,3.74,0,0,0-.36-.85q-.24-.43-.52-.84l-1.92-2.95a8.35,8.35,0,0,1-1.45-3.69,4.75,4.75,0,0,1,1.28-3.42,5.88,5.88,0,0,1,1.93-1.59,5.77,5.77,0,0,1,2.22-.6,6.19,6.19,0,0,1,2.32.3,8.32,8.32,0,0,1,2.26,1.15L354.93,81,357,82.66l-2.27,2.78a11.19,11.19,0,0,1,1.89,2.21,9.77,9.77,0,0,1,1.29,3.13Z"/></g><g id="wallet"><path class="cls-6" d="M371.76,286.24,361,289.52l-7.27,2.2-5.12,1.55L57,381.63l-2.7.82-14.65,4.44A24.53,24.53,0,0,1,9.08,370.55v0l-8-26.45a24.52,24.52,0,0,1,16.26-30.56l.1,0L326,220a24.53,24.53,0,0,1,30.56,16.26.54.54,0,0,1,0,.1l8,26.46Z"/><path class="cls-7" d="M57.12,382l-.2-.65,291.57-88.36.23.64-.23.08-.1,0Z"/><path class="cls-7" d="M57.07,381.8l-.1-.34L348.54,293.1l.12.34-.22.07-.11,0Z"/><g id="boy_2" data-name="boy 2"><path class="cls-7" d="M267.66,147l30.91,9a111.89,111.89,0,0,1,78.56,85.8l33,167.43L37.84,380.49,92.41,221.71a82.47,82.47,0,0,1,57.7-63.6L188,147S218.45,188,267.66,147Z"/><g id="head"><path class="cls-8" d="M204.38,111s-2.77,28.74-16.4,36c0,0,30.76,43.41,79.68,0,0,0-17-13.3-16.11-38.72Z"/><path class="cls-9" d="M202.54,121.54s40.34,42.26,49.72-2.5Z"/><path class="cls-10" d="M179,75.87s-12.3-9.14-12.3-23.8,9.7-22.55,19.84-19.39c0,0-2-26.16,23.9-31.57s34.27,10.6,34.27,10.6,7.89.68,12.63,10.37c0,0,18.26,9.75,8.34,36.78Z"/><path class="cls-8" d="M271,57.89c-.56-3-5.32,1-5.32,1h0a127.71,127.71,0,0,0-2.35-13.57l0,0c-.3.25-2.56,1.62-10.73-3.84-8.87-5.91-10.25,12.88-24.76,11s-29.7,20.9-37.72,7.6S177,64.52,177,64.52s.2,1.84.73,4.91h0c.3,1.78.72,4,1.27,6.47v0s-9.24-6.69-9.06,6.11,13.89,10.53,13.89,10.53v0c7.26,19.72,21.69,41.75,49.49,36.41,26.71-5.13,33.08-30,33.44-51.36l0,.3C271.74,72.39,271.58,60.91,271,57.89Z"/><path class="cls-9" d="M263.31,45.34c-5,5.56-10.55-7.11-17.61,3.33s-16.62,2.61-34,12S190.46,63.9,186,59.91s-8.17,9.22-8.26,9.52c-.53-3.07-.73-4.91-.73-4.91s5.07-17.73,13.09-4.44,23.22-9.5,37.72-7.6,15.89-16.89,24.76-11C260.76,47,263,45.59,263.31,45.34Z"/></g><g id="hand"><path class="cls-8" d="M358.12,249.54s2.18-41.72-4.06-49.35-20.11-8.32-20.46-25.31c0,0,6.24.35,10.75,4.16s14.4,3.47,14.14-2.43l-7.9-9.71s-5.2,5.2-11.1,6.59-8.63-2.37-3.1-6.59,11-13.81,16.57-11a23.42,23.42,0,0,1,8.12,6.54s-9.69-27.67-2.08-35.28c2.08-2.25,6.4,6.05,10.55,29.05,0,0-2.42-32.51,3.29-33.89s2.77,29.05,5.88,31.13,8-15.91,14.87-16.95-2.94,13.66-4.15,21.1-8.3,23,.86,43.92,13.32,33.68,13.32,33.68Z"/><path class="cls-7" d="M348.16,370.1h84.26s-11.1-96.74-27-134.89l-51,15.45Z"/><polygon class="cls-11" points="354.4 250.66 355.22 235.86 399.62 221.6 405.38 235.21 354.4 250.66"/></g><g id="hand-2" data-name="hand"><path class="cls-12" d="M143.6,249.9l8.27-1.84s-17,12.41-12.64,22.52,2.67,21.59,43,30l-43-9.73s-5.61-22.4-2.46-33.75,4.82-27.94,4.82-27.94"/></g><polygon class="cls-12" points="354.4 250.66 330.06 370.1 348.16 370.1 354.4 250.66"/></g><path class="cls-13" d="M417.7,434.24l-.88.71-103,83.39-19.63,15.9L202,608.9a47,47,0,0,1-66.07-7L121,583.6l-4.45-5.5L45.3,490h0l-17.55-57.9c-.08-.24-.14-.48-.21-.72l-.91-3-9.47-31.24a47.12,47.12,0,0,1,7.36-7.45l.68-.55,2.18-1.77,6.44-5.22,48.24-39.06,97.18-78.68,59-47.79,2-1.61q1.18-1,2.4-1.82A46.93,46.93,0,0,1,306.32,222l2.55,3.15,48.55,60,3.55,4.38,11.85,14.63,7,8.6,24.26,30,20.6,25.44A47,47,0,0,1,417.7,434.24Z"/><path class="cls-14" d="M398.33,373.94c-.39.68-.81,1.35-1.24,2L302.25,521.85l-8.05,12.38-48.41,74.45c-4.32,6.64-10.49,8.35-17,11.95a47.12,47.12,0,0,1-19.11,5.79c-10,.81-19.86,1.93-28.92-4l-4.95-3.22L121,583.6l-7.19-4.67L62,545.23,45.29,490l-17.55-57.9c-.08-.24-.14-.48-.21-.72l-.92-3,.14-.23L57,381.63l25-38.51,39.86-61.3,38.74-59.58a47,47,0,0,1,65-13.78l12.61,8.2,31.37,20.4,84.08,54.67,19.12,12.43,5.43,3.53,5.06,3.29a47,47,0,0,1,15,63Z"/><path class="cls-7" d="M348.59,293.27l-.31.1L57,381.63Z"/><path class="cls-15" d="M473.05,550.23,229.28,624.11l-19.11,5.79-74.06,22.44a39.84,39.84,0,0,1-49.69-26.57L68.8,567.61,62,545.23,45.3,490h0l-17.55-57.9c-.08-.24-.14-.48-.21-.72l-.91-3-9.47-31.24L9.08,370.55a24.52,24.52,0,0,0,30.5,16.36l.08,0,14.65-4.44,1.83-.55,59-17.87,233.16-70.65.27-.08L361,289.52l10.79-3.27,19.5-5.91a39.85,39.85,0,0,1,49.69,26.58l58.68,193.63A39.85,39.85,0,0,1,473.05,550.23Z"/><path class="cls-15" d="M361,289.52l-12.43,3.77,0,0,5.12-1.55Z"/><path class="cls-11" d="M403.52,381.31h66a0,0,0,0,1,0,0v53.92a0,0,0,0,1,0,0h-66a27,27,0,0,1-27-27v0A27,27,0,0,1,403.52,381.31Z" transform="translate(-100.46 140.71) rotate(-16.91)"/><path class="cls-8" d="M110.29,286.09s14.38-32.68,28.89-27.56,20.61,8.62,19.76,11.09c-1.64,4.77-19.59-2.86-19.59-2.86s15.71,7.49,14.61,11.32c-1.27,4.38-20.88-5.46-20.88-5.46s13,7.82,11.28,11.19c-2.06,4-17.35-3.16-17.35-3.16s14.2,6.92,7.77,8.5-13.23-3.52-18.11,1.44Z"/><polygon class="cls-11" points="110.35 286.13 116.68 290.58 112.83 296.09 103.64 292.1 110.35 286.13"/><polygon class="cls-16" points="103.64 292.1 52.98 336.44 38.59 378.31 82.06 343.12 112.83 296.09 103.64 292.1"/><path class="cls-17" d="M473.05,550.23,229.28,624.11l-19.11,5.79-74.06,22.44a39.84,39.84,0,0,1-49.69-26.57C196,645.13,231.18,547.38,311.9,504.85s31.25-106.76,75.33-141.46,4-83.05,4-83.05a39.85,39.85,0,0,1,49.69,26.58l58.68,193.63A39.85,39.85,0,0,1,473.05,550.23Z"/><circle class="cls-1" cx="404.69" cy="415.46" r="13.23"/><path class="cls-18" d="M353.71,291.72,238.26,216.65l2-1.61q1.18-1,2.4-1.82Z"/><polygon class="cls-18" points="57.02 381.63 49.01 384.06 82.06 343.12 57.02 381.63"/><path class="cls-19" d="M361,289.52l-12.43,3.77L115.11,364l-59,17.87-16.48,5-.08,0a24.38,24.38,0,0,1-12.21.48l6.44-5.22,323.61-97Z"/></g><g id="money-4" data-name="money"><circle class="cls-2" cx="256.86" cy="569.97" r="64.26" transform="translate(-321.59 332.82) rotate(-43.45)"/><circle class="cls-3" cx="247.66" cy="577.2" r="64.26" transform="translate(-329.08 328.48) rotate(-43.45)"/><circle class="cls-4" cx="247.66" cy="577.2" r="57.18" transform="translate(-329.08 328.48) rotate(-43.45)"/><path class="cls-3" d="M247.7,627.88l-1.41,0a50.64,50.64,0,1,1,1.41,0Zm-.07-98.73a48.05,48.05,0,0,0-1.27,96.08l1.33,0A48.05,48.05,0,0,0,249,529.17Z"/><path class="cls-5" d="M246,559a24.13,24.13,0,0,0-5.63,1.61,16.2,16.2,0,0,0-4.91,3.19,17.14,17.14,0,0,0-1.72,1.92,8.28,8.28,0,0,0-1.27,2.28,5.23,5.23,0,0,0-.29,2.42,4,4,0,0,0,1.16,2.29,2.92,2.92,0,0,0,2.87.77,16.6,16.6,0,0,0,4-1.45l8.86-4.33a39.32,39.32,0,0,1,5.74-2.27,15.21,15.21,0,0,1,5.52-.66,14.2,14.2,0,0,1,5.4,1.54,20.15,20.15,0,0,1,5.44,4.26,16.75,16.75,0,0,1,4.72,12.61,19.78,19.78,0,0,1-1.58,6.68,20.91,20.91,0,0,1-4,6.07l6.81,7.18-5.33,5L265,600.94a28.67,28.67,0,0,1-9,5.63,31.68,31.68,0,0,1-10.38,2.18l.28-12.54a21.63,21.63,0,0,0,7.79-1.29,20.17,20.17,0,0,0,6.6-4.34,14.36,14.36,0,0,0,1.85-2.15,7.41,7.41,0,0,0,1.17-2.51,5.53,5.53,0,0,0,0-2.69,6.26,6.26,0,0,0-1.63-2.74,5,5,0,0,0-2.13-1.42,5.2,5.2,0,0,0-2.31-.18,10.32,10.32,0,0,0-2.45.69q-1.26.52-2.49,1.12l-8.74,4.22q-6,2.85-10.61,2.66t-8.9-4.7a16.22,16.22,0,0,1-3.66-5.83,15.91,15.91,0,0,1-.87-6.28,17.08,17.08,0,0,1,1.65-6.24,23,23,0,0,1,3.95-5.77l-6.81-7.18,5.33-5,6.81,7.18a30.86,30.86,0,0,1,6.71-4.39,27,27,0,0,1,9-2.42Z"/></g></svg>